<?xml version="1.0" encoding="UTF-8"?>
<svg width="130px" height="30px" viewBox="0 0 130 30" version="1.1" xmlns="http://www.w3.org/2000/svg" xmlns:xlink="http://www.w3.org/1999/xlink">
    <!-- Generator: Sketch 50.2 (55047) - http://www.bohemiancoding.com/sketch -->
    <title>Artboard</title>
    <desc>Created with Sketch.</desc>
    <defs>
        <path d="M6.15520218,0.274993896 L18.7850061,0.274993896 C22.0655775,0.274993896 24.7250061,2.93442248 24.7250061,6.2149939 L24.7250061,23.2997978 C24.7250061,24.1199407 24.060149,24.7847978 23.2400061,24.7847978 L6.15520218,24.7847978 C2.87463077,24.7847978 0.215202182,22.1253692 0.215202182,18.8447978 L0.215202182,6.2149939 C0.215202182,2.93442248 2.87463077,0.274993896 6.15520218,0.274993896 Z" id="path-1"></path>
        <linearGradient x1="67.2885791%" y1="27.7674916%" x2="-84.7420641%" y2="149.79691%" id="linearGradient-3">
            <stop stop-color="#000000" stop-opacity="0" offset="0%"></stop>
            <stop stop-color="#000000" stop-opacity="0.2" offset="100%"></stop>
        </linearGradient>
        <linearGradient x1="28.8560476%" y1="0%" x2="-10.733951%" y2="210.427387%" id="linearGradient-4">
            <stop stop-color="#000000" stop-opacity="0" offset="0%"></stop>
            <stop stop-color="#000000" stop-opacity="0.2" offset="100%"></stop>
        </linearGradient>
        <linearGradient x1="60.5787603%" y1="50%" x2="-116.153146%" y2="50%" id="linearGradient-5">
            <stop stop-color="#FFFFFF" offset="0%"></stop>
            <stop stop-color="#2DD7A6" offset="100%"></stop>
        </linearGradient>
        <linearGradient x1="50%" y1="36.2184967%" x2="0%" y2="147.646543%" id="linearGradient-6">
            <stop stop-color="#000000" stop-opacity="0" offset="0%"></stop>
            <stop stop-color="#000000" stop-opacity="0.2" offset="100%"></stop>
        </linearGradient>
        <linearGradient x1="72.5672218%" y1="50%" x2="-27.5621409%" y2="50%" id="linearGradient-7">
            <stop stop-color="#FFFFFF" offset="0%"></stop>
            <stop stop-color="#2DD7A6" offset="100%"></stop>
        </linearGradient>
    </defs>
    <g id="Artboard" stroke="none" stroke-width="1" fill="none" fill-rule="evenodd">
        <g id="Group-Copy-5" transform="translate(3.000000, 2.000000)">
            <g id="Group-3-Copy-3" transform="translate(29.800000, 1.200000)" fill="#454A4D" fill-rule="nonzero">
                <path d="M11.2070083,20.1798111 C15.484189,20.1798111 18.9545923,16.7519975 18.9545923,12.5197954 C18.9545923,8.28759318 15.484189,4.85977961 11.2070083,4.85977961 C6.92982759,4.85977961 3.45942436,8.28759318 3.45942436,12.5197954 L5.97834328,12.5197954 C5.97834328,9.67336324 8.31760461,7.36280992 11.2070083,7.36280992 C14.096412,7.36280992 16.4356733,9.67336324 16.4356733,12.5197954 C16.4356733,15.3662275 14.096412,17.6767808 11.2070083,17.6767808 L11.2070083,20.1798111 Z" id="Oval-3" transform="translate(11.207008, 12.519795) rotate(-135.000000) translate(-11.207008, -12.519795) "></path>
                <path d="M25.6989704,20.1798111 C21.4217897,20.1798111 17.9513865,16.7519975 17.9513865,12.5197954 C17.9513865,8.28759318 21.4217897,4.85977961 25.6989704,4.85977961 C29.9761511,4.85977961 33.4465543,8.28759318 33.4465543,12.5197954 C33.4465543,16.7519975 29.9761511,20.1798111 25.6989704,20.1798111 Z M25.6989704,17.6767808 C28.5883741,17.6767808 30.9276354,15.3662275 30.9276354,12.5197954 C30.9276354,9.67336324 28.5883741,7.36280992 25.6989704,7.36280992 C22.8095667,7.36280992 20.4703054,9.67336324 20.4703054,12.5197954 C20.4703054,15.3662275 22.8095667,17.6767808 25.6989704,17.6767808 Z" id="Oval-3-Copy"></path>
                <path d="M42.8216216,20.1798111 C38.5444409,20.1798111 35.0740377,16.7519975 35.0740377,12.5197954 C35.0740377,8.28759318 38.5444409,4.85977961 42.8216216,4.85977961 C47.0988023,4.85977961 50.5692056,8.28759318 50.5692056,12.5197954 C50.5692056,16.7519975 47.0988023,20.1798111 42.8216216,20.1798111 Z M42.8216216,17.6767808 C45.7110253,17.6767808 48.0502867,15.3662275 48.0502867,12.5197954 C48.0502867,9.67336324 45.7110253,7.36280992 42.8216216,7.36280992 C39.9322179,7.36280992 37.5929566,9.67336324 37.5929566,12.5197954 C37.5929566,15.3662275 39.9322179,17.6767808 42.8216216,17.6767808 Z" id="Oval-3-Copy-2"></path>
                <path d="M50.5583012,20.1798111 L50.5583012,0.178787879 L48.0393822,0.178787879 L48.0393822,18.3798111 C48.0393822,19.3739236 48.8452697,20.1798111 49.8393822,20.1798111 L50.5583012,20.1798111 Z" id="Path-8"></path>
                <path d="M75.1213039,17.6767808 C73.6785022,17.6767808 72.5088803,16.5145366 72.5088803,15.0808356 L72.5088803,0.178787879 L69.9899614,0.178787879 L69.9899614,15.0808356 C69.9899614,17.896922 72.2873417,20.1798111 75.1213039,20.1798111 L76.3807634,20.1798111 L76.3807634,17.6767808 L75.1213039,17.6767808 Z" id="Path-8-Copy-2"></path>
                <path d="M60.2686791,20.1798111 C55.9914983,20.1798111 52.5210951,16.7519975 52.5210951,12.5197954 C52.5210951,8.28759318 55.9914983,4.85977961 60.2686791,4.85977961 C64.5458598,4.85977961 68.016263,8.28759318 68.016263,12.5197954 C68.016263,16.7519975 64.5458598,20.1798111 60.2686791,20.1798111 Z M60.2686791,17.6767808 C63.1580828,17.6767808 65.4973441,15.3662275 65.4973441,12.5197954 C65.4973441,9.67336324 63.1580828,7.36280992 60.2686791,7.36280992 C57.3792754,7.36280992 55.040014,9.67336324 55.040014,12.5197954 C55.040014,15.3662275 57.3792754,17.6767808 60.2686791,17.6767808 Z" id="Oval-3-Copy-4"></path>
                <path d="M85.3079326,20.1798111 C81.0307519,20.1798111 77.5603487,16.7519975 77.5603487,12.5197954 C77.5603487,8.28759318 81.0307519,4.85977961 85.3079326,4.85977961 C89.5851133,4.85977961 93.0555166,8.28759318 93.0555166,12.5197954 C93.0555166,16.7519975 89.5851133,20.1798111 85.3079326,20.1798111 Z M85.3079326,17.6767808 C88.1973363,17.6767808 90.5365976,15.3662275 90.5365976,12.5197954 C90.5365976,9.67336324 88.1973363,7.36280992 85.3079326,7.36280992 C82.4185289,7.36280992 80.0792676,9.67336324 80.0792676,12.5197954 C80.0792676,15.3662275 82.4185289,17.6767808 85.3079326,17.6767808 Z" id="Oval-3-Copy-3"></path>
                <path d="M93.0560618,20.1798111 L93.0560618,12.3253598 L90.5371429,12.3253598 L90.5371429,18.3798111 C90.5371429,19.3739236 91.3430303,20.1798111 92.3371429,20.1798111 L93.0560618,20.1798111 Z" id="Path-8-Copy"></path>
                <path d="M76.3229523,5.72121212 L70.0259459,5.72121212 L70.0259459,8.22424242 L74.5229523,8.22424242 C75.5170649,8.22424242 76.3229523,7.41835497 76.3229523,6.42424242 L76.3229523,5.72121212 Z" id="Path-8-Copy-3"></path>
            </g>
            <g id="Path-9-Copy-+-Path-9-Mask" transform="translate(13.500000, 13.000000) scale(-1, 1) translate(-13.500000, -13.000000) translate(1.000000, 0.500000)">
                <mask id="mask-2" fill="white">
                    <use xlink:href="#path-1"></use>
                </mask>
                <use id="Rectangle-14" fill="#2DD7A6" xlink:href="#path-1"></use>
                <g id="Group-3" mask="url(#mask-2)">
                    <g transform="translate(4.325012, 15.375000)">
                        <path d="M6.1253753,6.4348805 L20.9088325,6.4348805 C21.5945657,6.4348805 22.1504624,6.99077713 22.1504624,7.67651038 C22.1504624,7.88762779 22.0966309,8.09525873 21.9940552,8.27978184 L20.7432459,10.5298579 C20.5242138,10.9238739 20.1088265,11.1682164 19.6580232,11.1682164 L3.74746405,11.1682164 C3.48023417,11.1682164 3.26360155,10.9515837 3.26360155,10.6843539 C3.26360155,10.6020815 3.28457963,10.5211679 3.32455335,10.4492593 L5.27955389,6.93241637 C5.45026727,6.62532072 5.77401964,6.4348805 6.1253753,6.4348805 Z" id="Rectangle-14-Copy-2" fill="url(#linearGradient-3)" transform="translate(12.707032, 8.801548) rotate(45.000000) translate(-12.707032, -8.801548) "></path>
                        <path d="M-1.30024134,9.96328596 L20.2541596,9.99858889 C20.5841576,9.99912938 20.9003655,10.131015 21.1329479,10.3651185 L22.0660945,11.3043681 C22.3640447,11.6042671 22.362465,12.0889196 22.0625661,12.3868698 C21.9191628,12.5293413 21.7252246,12.6093031 21.5230795,12.6093031 L-0.676803132,12.6093031 C-1.23085842,12.6093031 -1.73228104,12.2810738 -1.95394406,11.7732916 L-2.16705024,11.2851113 C-2.37565622,10.80724 -2.15737352,10.2507402 -1.6795022,10.0421342 C-1.5598907,9.98991998 -1.4307526,9.9630722 -1.30024134,9.96328596 Z" id="Rectangle-14-Copy-4" fill="url(#linearGradient-4)" transform="translate(10.021195, 11.286294) rotate(45.000000) translate(-10.021195, -11.286294) "></path>
                        <g id="Group-2-Copy-2" stroke-width="1" fill="none" transform="translate(5.215293, 3.117647) scale(1, -1) rotate(90.000000) translate(-5.215293, -3.117647) translate(3.715293, -1.882353)">
                            <path d="M-0.173252615,4.30646152 L2.76832313,4.30646152 C3.51271436,4.30646152 4.11616268,3.72553523 4.11616268,3.00892633 C4.11616268,2.29231743 3.51271436,1.71139114 2.76832313,1.71139114 L-0.173252615,1.71139114 C-0.917643841,1.71139114 -1.52109216,2.29231743 -1.52109216,3.00892633 C-1.52109216,3.72553523 -0.917643841,4.30646152 -0.173252615,4.30646152 Z" id="Path-9-Copy" fill="url(#linearGradient-5)" fill-rule="nonzero" transform="translate(1.297535, 3.008926) rotate(-90.000000) translate(-1.297535, -3.008926) "></path>
                            <path d="M1.42108547e-14,8.19607845 L1.42108547e-14,8.19607845 C1.43010352e-14,8.93245812 0.596953673,9.52941179 1.33333335,9.52941179 L1.33333335,9.52941179 C2.06971302,9.52941179 2.66666669,8.93245812 2.66666669,8.19607845 L2.66666669,8.19607845 C2.66666669,7.45969877 2.06971302,6.8627451 1.33333335,6.8627451 L1.33333335,6.8627451 C0.596953673,6.8627451 1.43427188e-14,7.45969877 1.44328993e-14,8.19607845 Z" id="Path-9-Copy-4" fill="#FFFFFF" fill-rule="nonzero" transform="translate(1.333333, 8.196078) scale(-1, 1) translate(-1.333333, -8.196078) "></path>
                        </g>
                    </g>
                </g>
                <g id="Group-4" mask="url(#mask-2)">
                    <g transform="translate(11.000000, 4.500000)">
                        <path d="M1.71630468,8.15604243 L23.869816,8.15604243 C24.5539496,8.15604243 25.1091813,8.70944477 25.1114392,9.39357457 L25.1332502,16.0023505 C25.1355133,16.68808 24.5814544,17.2458083 23.8957248,17.2480714 C23.8943589,17.2480759 23.892993,17.2480782 23.8916271,17.2480782 L1.73811572,17.2480782 C1.0539822,17.2480782 0.498750447,16.6946758 0.496492603,16.010546 L0.474681556,9.40177007 C0.472418432,8.71604055 1.02647741,8.15831232 1.71220693,8.1560492 C1.71357284,8.15604469 1.71493876,8.15604243 1.71630468,8.15604243 Z" id="Rectangle-14-Copy" fill="url(#linearGradient-6)" transform="translate(12.803966, 12.702060) rotate(45.000000) translate(-12.803966, -12.702060) "></path>
                        <g id="Group-2" stroke-width="1" fill="none" transform="translate(4.750000, 7.397956) scale(-1, 1) translate(-4.750000, -7.397956) translate(0.250000, 0.397956)">
                            <path d="M1.34783955,10.2046009 L7.7207879,10.2046009 C8.46517913,10.2046009 9.06862745,9.62367463 9.06862745,8.90706573 C9.06862745,8.19045683 8.46517913,7.60953054 7.7207879,7.60953054 L1.34783955,7.60953054 C0.603448323,7.60953054 0,8.19045683 0,8.90706573 C0,9.62367463 0.603448323,10.2046009 1.34783955,10.2046009 Z" id="Path-9-Copy" fill="url(#linearGradient-7)" fill-rule="nonzero" transform="translate(4.534314, 8.907066) rotate(-225.000000) translate(-4.534314, -8.907066) "></path>
                            <path d="M3.1512605,1.11727121 L3.1512605,7.73521782 C3.1512605,8.38014995 3.67408129,8.90297073 4.31901341,8.90297073 L5.81929782,8.90297073 L5.81929782,1.11727121 C5.81929782,0.380513051 5.22203732,-0.216747446 4.48527916,-0.216747446 L4.48527916,-0.216747446 C3.748521,-0.216747446 3.1512605,0.380513051 3.1512605,1.11727121 Z" id="Path-9-Copy-3" fill="#FFFFFF" fill-rule="nonzero" transform="translate(4.485279, 4.343112) scale(-1, 1) rotate(45.000000) translate(-4.485279, -4.343112) "></path>
                        </g>
                    </g>
                </g>
            </g>
        </g>
    </g>
</svg>